<?xml version="1.0" encoding="UTF-8" standalone="no"?>
<!-- Created with Inkscape (http://www.inkscape.org/) -->

<svg
   version="1.1"
   id="svg5717"
   width="800"
   height="800"
   viewBox="0 0 800 800"
   sodipodi:docname="dice-vector-graphics-pdv.svg"
   inkscape:version="1.2 (dc2aedaf03, 2022-05-15)"
   xmlns:inkscape="http://www.inkscape.org/namespaces/inkscape"
   xmlns:sodipodi="http://sodipodi.sourceforge.net/DTD/sodipodi-0.dtd"
   xmlns="http://www.w3.org/2000/svg"
   xmlns:svg="http://www.w3.org/2000/svg">
  <defs
     id="defs5721">
    <clipPath
       clipPathUnits="userSpaceOnUse"
       id="clipPath5733">
      <path
         d="M 0,600 H 600 V 0 H 0 Z"
         id="path5731" />
    </clipPath>
  </defs>
  <sodipodi:namedview
     id="namedview5719"
     pagecolor="#ffffff"
     bordercolor="#000000"
     borderopacity="0.25"
     inkscape:showpageshadow="2"
     inkscape:pageopacity="0.0"
     inkscape:pagecheckerboard="0"
     inkscape:deskcolor="#d1d1d1"
     showgrid="false"
     inkscape:zoom="1.04625"
     inkscape:cx="400"
     inkscape:cy="400.4779"
     inkscape:window-width="1920"
     inkscape:window-height="1017"
     inkscape:window-x="-8"
     inkscape:window-y="-8"
     inkscape:window-maximized="1"
     inkscape:current-layer="g5725">
    <inkscape:page
       x="0"
       y="0"
       id="page5723"
       width="800"
       height="800" />
  </sodipodi:namedview>
  <g
     id="g5725"
     inkscape:groupmode="layer"
     inkscape:label="Page 1"
     transform="matrix(1.3333333,0,0,-1.3333333,0,800)">
    <g
       id="g5727">
      <g
         id="g5729"
         clip-path="url(#clipPath5733)">
        <g
           id="g5735"
           transform="translate(314.7148,232.9023)">
          <path
             d="m 0,0 c -5.277,9.351 -9.716,17.099 -10.953,18.976 l -1.201,1.811 c -5.573,8.384 -8.116,12.211 -6.27,25.408 0.469,3.351 1.45,12.264 2.696,23.549 1.162,10.548 2.521,22.877 3.88,34.496 -1.263,3.239 -2.369,6.033 -3.225,8.147 -9.38,23.146 -13.847,25.16 -25.225,25.369 -0.312,0.006 -0.677,0.008 -1.087,0.008 -10.864,0 -54.732,-1.956 -70.936,-3.078 -8.225,-0.571 -15.012,-1.806 -20.328,-3.682 0.698,0.077 1.4,0.134 2.109,0.153 1.732,0.041 3.51,-0.114 5.19,-0.711 0.818,-0.351 1.638,-0.749 2.26,-1.402 0.679,-0.588 1.036,-1.44 1.275,-2.234 -0.805,1.524 -2.263,2.389 -3.814,2.695 -1.561,0.323 -3.196,0.263 -4.807,0.095 -1.613,-0.195 -3.225,-0.502 -4.81,-0.927 -1.589,-0.403 -3.165,-0.88 -4.71,-1.444 -0.174,-0.061 -0.343,-0.134 -0.518,-0.197 -0.519,-0.385 -1.019,-0.778 -1.474,-1.189 -0.244,-0.219 -1.363,-1.176 -3.968,-3.399 1.851,1.106 4.089,2.167 6.578,3.057 7.336,2.623 13.986,2.781 14.853,0.354 0.868,-2.426 -4.375,-6.52 -11.711,-9.143 -7.334,-2.622 -13.985,-2.781 -14.853,-0.354 -0.216,0.602 -0.053,1.307 0.423,2.066 -0.986,-0.841 -2.036,-1.739 -3.139,-2.682 0.015,-0.113 0.024,-0.224 0.047,-0.338 -0.038,0.092 -0.071,0.191 -0.108,0.286 -7.566,-6.467 -17.595,-15.073 -26.497,-22.842 0.586,0.243 1.174,0.478 1.765,0.699 3.241,1.11 6.606,1.954 10.089,2.046 1.734,0.041 3.511,-0.114 5.191,-0.711 0.818,-0.351 1.636,-0.749 2.258,-1.402 0.681,-0.588 1.037,-1.44 1.275,-2.234 -0.804,1.524 -2.262,2.388 -3.813,2.695 -1.562,0.323 -3.196,0.262 -4.806,0.095 -1.613,-0.195 -3.226,-0.502 -4.81,-0.928 -1.591,-0.402 -3.166,-0.879 -4.711,-1.443 -1.553,-0.54 -3.073,-1.175 -4.559,-1.868 -1.183,-0.536 -2.323,-1.155 -3.43,-1.816 -1.841,-1.623 -3.587,-3.171 -5.197,-4.613 -0.572,-1.044 -0.836,-2.26 -0.574,-3.529 -0.321,0.766 -0.584,1.651 -0.431,2.536 0.003,0.036 0.013,0.07 0.017,0.105 -13.002,-11.714 -14.711,-23.548 -11.969,-30.723 6.363,-16.648 13.517,-35.63 19.83,-52.379 6.02,-15.975 11.219,-29.771 13.939,-36.775 2.412,-6.212 6.735,-13.457 18.852,-14.326 15.15,-1.089 63.868,-2.548 80.223,-1.995 14.169,0.486 24.589,4.03 31.856,10.835 C -33.141,-37.087 -12.862,-14.469 0,0 m 24.754,148.725 c -0.592,-0.148 -1.184,-0.327 -1.771,-0.56 -0.691,-0.304 -1.389,-0.659 -2,-1.257 -0.608,-0.563 -1.123,-1.449 -1.107,-2.387 0.061,-0.935 0.542,-1.641 1.067,-2.135 0.535,-0.505 1.137,-0.861 1.768,-1.131 -0.431,0.532 -0.836,1.068 -1.107,1.629 -0.275,0.555 -0.405,1.132 -0.266,1.545 0.245,0.789 1.266,1.249 2.404,1.51 2.302,0.508 4.882,0.404 7.377,0.141 2.514,-0.285 5.023,-0.787 7.438,-1.547 1.199,-0.393 2.396,-0.831 3.472,-1.457 0.565,-0.287 1.049,-0.66 1.5,-1.079 0.439,-0.423 0.809,-0.955 0.855,-1.649 0.303,0.642 0.154,1.462 -0.165,2.114 -0.318,0.665 -0.777,1.26 -1.279,1.771 -1.027,1.017 -2.214,1.829 -3.466,2.473 -1.713,0.87 -3.529,1.485 -5.389,1.899 -0.87,0.193 -1.747,0.356 -2.634,0.456 -2.198,0.219 -4.462,0.221 -6.697,-0.336 M 62.105,-40.233 c 4.313,0.832 8.315,2.989 11.444,6.118 1.537,1.588 2.892,3.409 3.764,5.534 0.442,1.052 0.729,2.194 0.852,3.369 0.153,1.171 -0.01,2.419 -0.413,3.566 -0.399,1.153 -1.094,2.217 -2.019,2.98 -0.91,0.78 -1.977,1.292 -3.056,1.586 -2.177,0.563 -4.375,0.384 -6.367,-0.236 2.079,-0.029 4.141,-0.297 5.867,-1.141 1.737,-0.789 2.999,-2.213 3.345,-3.87 0.366,-1.644 0.015,-3.472 -0.806,-5.12 -0.775,-1.672 -1.927,-3.224 -3.299,-4.559 -2.715,-2.695 -6.136,-4.818 -9.849,-5.949 -1.858,-0.561 -3.807,-0.836 -5.738,-0.675 -1.925,0.154 -3.835,0.889 -5.235,2.473 0.416,-0.962 1.122,-1.819 1.992,-2.49 0.869,-0.689 1.914,-1.092 2.967,-1.43 2.139,-0.554 4.403,-0.58 6.551,-0.156 m -25.832,-4.338 c 2.289,10.04 4.45,20.103 6.484,30.191 2.061,10.082 4.01,20.187 5.933,30.295 1.885,10.116 3.749,20.235 5.499,30.377 1.775,10.136 3.426,20.296 4.952,30.479 C 56.855,66.731 54.695,56.667 52.66,46.58 50.598,36.498 48.65,26.394 46.725,16.285 44.836,6.17 42.973,-3.95 41.223,-14.091 c -1.778,-10.138 -3.426,-20.297 -4.95,-30.48 m -4.75,117.893 c 0.135,-1.532 0.343,-3.06 0.687,-4.566 0.357,-1.503 0.836,-2.983 1.44,-4.422 0.621,-1.434 1.404,-2.82 2.469,-4.064 0.539,-0.618 1.158,-1.194 1.918,-1.64 0.762,-0.431 1.689,-0.721 2.633,-0.612 0.943,0.136 1.726,0.64 2.312,1.22 0.585,0.595 0.99,1.282 1.336,1.971 0.69,1.389 1.04,2.863 1.308,4.328 0.52,2.941 0.527,5.914 0.334,8.858 -0.244,2.939 -0.688,5.879 -1.637,8.711 -0.48,1.41 -1.045,2.817 -1.929,4.089 -0.446,0.632 -0.948,1.251 -1.616,1.754 -0.667,0.489 -1.515,0.873 -2.47,0.868 -0.953,-0.032 -1.828,-0.456 -2.52,-0.996 -0.684,-0.554 -1.216,-1.216 -1.655,-1.906 -0.87,-1.389 -1.444,-2.877 -1.84,-4.389 -0.385,-1.514 -0.643,-3.047 -0.77,-4.587 -0.117,-1.541 -0.093,-3.083 0,-4.617 m 14.133,58.392 c -1.297,-0.222 -2.586,-0.61 -3.788,-1.243 -0.582,-0.359 -1.173,-0.707 -1.625,-1.256 -0.453,-0.519 -0.788,-1.188 -0.74,-1.841 0.619,1.147 1.778,1.483 2.885,1.727 1.123,0.243 2.305,0.275 3.476,0.272 2.351,-0.023 4.704,-0.313 7.036,-0.729 2.325,-0.443 4.627,-1.007 6.833,-1.82 1.094,-0.413 2.189,-0.862 3.153,-1.488 0.948,-0.619 1.911,-1.343 2.086,-2.636 0.277,0.594 0.202,1.34 -0.037,1.986 -0.228,0.673 -0.656,1.21 -1.073,1.753 -0.898,1.019 -1.965,1.84 -3.1,2.507 -2.275,1.335 -4.775,2.169 -7.321,2.648 -2.552,0.452 -5.185,0.561 -7.785,0.12 m 30.753,-20.879 c -2.997,0.637 -6.095,0.892 -9.172,0.466 -1.534,-0.197 -3.064,-0.58 -4.504,-1.244 -0.706,-0.357 -1.409,-0.761 -1.974,-1.354 -0.567,-0.56 -1.016,-1.328 -0.982,-2.101 0.305,0.702 0.877,1.139 1.481,1.442 0.291,0.165 0.634,0.264 0.943,0.389 0.343,0.08 0.659,0.19 1.009,0.238 1.357,0.272 2.769,0.314 4.171,0.303 2.811,-0.068 5.625,-0.471 8.383,-1.068 2.745,-0.622 5.469,-1.431 7.936,-2.655 1.216,-0.622 2.384,-1.363 3.149,-2.341 0.372,-0.487 0.556,-1.033 0.508,-1.656 -0.076,-0.619 -0.497,-1.244 -1.021,-1.778 0.698,0.259 1.403,0.717 1.808,1.509 0.386,0.795 0.329,1.799 0.007,2.613 -0.716,1.592 -1.944,2.739 -3.223,3.647 -2.58,1.845 -5.531,2.908 -8.519,3.59 m 32.763,37.072 c -1.421,0.01 -2.85,-0.116 -4.262,-0.392 -0.703,-0.175 -1.407,-0.355 -2.078,-0.669 -0.333,-0.168 -0.658,-0.354 -0.949,-0.597 -0.274,-0.263 -0.525,-0.601 -0.515,-0.966 0.367,0.613 1.062,0.687 1.694,0.768 0.651,0.052 1.31,0.048 1.968,0.004 1.321,-0.071 2.639,-0.276 3.948,-0.491 2.613,-0.448 5.212,-1.042 7.714,-1.8 1.248,-0.379 2.475,-0.817 3.59,-1.336 0.546,-0.256 1.081,-0.558 1.447,-0.842 0.079,-0.063 0.155,-0.137 0.21,-0.189 -0.069,-0.047 -0.143,-0.095 -0.219,-0.139 -0.236,-0.12 -0.506,-0.228 -0.796,-0.33 -0.581,-0.203 -1.223,-0.35 -1.876,-0.465 -1.309,-0.272 -2.673,-0.401 -4.066,-0.603 1.332,-0.461 2.711,-0.732 4.139,-0.868 0.715,-0.055 1.442,-0.06 2.201,0.01 0.381,0.032 0.772,0.109 1.18,0.224 0.416,0.15 0.851,0.27 1.329,0.72 0.233,0.226 0.469,0.532 0.59,0.946 0.107,0.372 0.114,0.877 0.003,1.176 -0.204,0.723 -0.557,1.064 -0.866,1.43 -0.635,0.656 -1.293,1.054 -1.95,1.447 -1.317,0.742 -2.668,1.26 -4.038,1.687 -2.743,0.826 -5.556,1.247 -8.398,1.275 m 31.65,-16.922 c -2.876,0.933 -5.839,1.526 -8.858,1.666 -1.507,0.08 -3.027,0.027 -4.543,-0.214 -0.753,-0.133 -1.513,-0.315 -2.236,-0.615 -0.361,-0.156 -0.716,-0.342 -1.03,-0.593 -0.308,-0.253 -0.567,-0.618 -0.59,-0.995 0.413,0.641 1.15,0.72 1.826,0.787 0.695,0.036 1.39,0.037 2.096,-0.048 1.404,-0.108 2.804,-0.369 4.194,-0.637 2.774,-0.59 5.524,-1.319 8.196,-2.198 1.335,-0.438 2.65,-0.928 3.898,-1.489 0.619,-0.281 1.237,-0.579 1.789,-0.907 0.539,-0.323 1.087,-0.703 1.35,-1.006 0.155,-0.164 0.115,-0.189 0.19,-0.132 0.055,0.063 0.04,-0.059 -0.145,-0.212 -0.382,-0.302 -1.047,-0.539 -1.706,-0.701 -1.343,-0.367 -2.805,-0.509 -4.282,-0.717 1.427,-0.454 2.9,-0.719 4.46,-0.745 0.783,0.017 1.579,0.063 2.493,0.449 0.439,0.202 1.021,0.595 1.274,1.377 0.206,0.779 -0.045,1.499 -0.307,1.934 -0.544,0.923 -1.194,1.436 -1.844,1.943 -0.649,0.505 -1.328,0.883 -2.008,1.267 -1.368,0.736 -2.781,1.304 -4.217,1.786 m 11.605,-16.129 c -0.755,-0.198 -1.514,-0.412 -2.215,-0.801 -0.677,-0.376 -1.4,-0.992 -1.457,-1.782 0.393,0.661 1.089,0.868 1.746,1.007 0.681,0.117 1.381,0.143 2.081,0.119 1.401,-0.024 2.814,-0.24 4.209,-0.468 2.792,-0.523 5.557,-1.219 8.263,-2.081 2.697,-0.856 5.368,-1.865 7.774,-3.186 0.607,-0.326 1.147,-0.717 1.655,-1.109 0.509,-0.39 0.9,-0.863 1.033,-1.261 0.175,-0.365 -0.06,-0.861 -0.619,-1.27 -0.538,-0.405 -1.225,-0.698 -1.921,-0.973 0.75,-0.051 1.515,-0.021 2.296,0.231 0.392,0.123 0.788,0.33 1.134,0.685 0.168,0.181 0.327,0.397 0.425,0.651 0.078,0.248 0.143,0.53 0.153,0.793 -0.045,1.076 -0.582,1.861 -1.084,2.507 -0.528,0.648 -1.131,1.188 -1.748,1.677 -2.485,1.942 -5.306,3.19 -8.193,4.114 -2.892,0.909 -5.894,1.475 -8.946,1.543 -1.525,0.04 -3.065,-0.062 -4.586,-0.396 M 70.778,49.134 c 0.297,-0.473 0.644,-0.918 1.026,-1.338 0.381,-0.422 0.837,-0.763 1.277,-1.135 0.941,-0.645 1.992,-1.188 3.111,-1.455 0.553,-0.19 1.124,-0.222 1.694,-0.334 0.566,-0.015 1.146,-0.082 1.71,-0.026 0.568,0.028 1.134,0.076 1.688,0.185 0.565,0.074 1.103,0.231 1.649,0.373 2.167,0.617 4.135,1.735 5.865,3.104 3.414,2.782 5.973,6.628 6.868,10.952 0.469,2.142 0.451,4.412 -0.157,6.522 -0.586,2.108 -1.941,4.004 -3.716,5.08 1.337,-1.591 2.133,-3.445 2.28,-5.373 0.213,-1.91 -0.077,-3.835 -0.665,-5.644 -0.615,-1.802 -1.457,-3.529 -2.584,-5.066 -1.099,-1.552 -2.401,-2.97 -3.893,-4.125 -1.471,-1.176 -3.114,-2.141 -4.864,-2.745 -1.737,-0.616 -3.602,-0.895 -5.376,-0.616 -1.763,0.275 -3.48,1.095 -4.727,2.516 -1.286,1.389 -2.056,3.294 -2.445,5.324 -0.275,-2.052 0.097,-4.276 1.259,-6.199 M 108.816,9.386 c 1.269,-1.45 3.225,-2.392 5.253,-2.589 2.034,-0.208 4.123,0.125 6.012,0.904 3.805,1.537 6.958,4.473 8.934,8.068 0.96,1.814 1.667,3.79 1.936,5.864 0.223,2.068 0.062,4.252 -0.791,6.229 -0.856,1.964 -2.418,3.655 -4.336,4.492 -1.919,0.835 -4.027,0.894 -5.869,0.349 1.916,-0.111 3.748,-0.607 5.157,-1.63 1.44,-0.982 2.359,-2.466 2.863,-4.025 0.896,-3.221 0.103,-6.829 -1.591,-9.84 -1.688,-3.034 -4.195,-5.698 -7.281,-7.38 -1.54,-0.839 -3.238,-1.412 -5.002,-1.558 -1.773,-0.207 -3.588,0.197 -5.285,1.116 m 75.624,87.185 c -9.072,-0.356 -18.132,-0.839 -27.182,-1.451 -9.052,-0.585 -18.095,-1.286 -27.136,-2.011 -9.037,-0.763 -18.073,-1.549 -27.1,-2.451 -9.028,-0.874 -18.044,-1.876 -27.053,-3.004 9.071,0.358 18.132,0.843 27.181,1.455 9.052,0.584 18.095,1.285 27.136,2.008 9.038,0.76 18.073,1.546 27.1,2.447 9.028,0.874 18.046,1.877 27.054,3.007 M 28.542,120.235 c 3.819,-3.884 7.657,-7.752 11.578,-11.537 3.902,-3.806 7.896,-7.52 11.981,-11.146 -3.53,4.169 -7.151,8.248 -10.865,12.236 -3.693,4.008 -7.469,7.935 -11.264,11.844 -3.822,3.883 -7.66,7.75 -11.581,11.535 -3.902,3.805 -7.895,7.521 -11.979,11.147 3.531,-4.167 7.154,-8.245 10.866,-12.233 3.694,-4.009 7.471,-7.935 11.264,-11.846 M 17.486,54.934 c -0.209,2.52 -0.549,5.041 -1.261,7.502 -0.364,1.226 -0.787,2.453 -1.464,3.601 -0.363,0.559 -0.719,1.144 -1.281,1.62 -0.534,0.474 -1.272,0.906 -2.168,0.9 C 10.415,68.537 9.641,68.072 9.079,67.558 8.488,67.035 8.103,66.429 7.732,65.816 7.056,64.577 6.595,63.287 6.291,61.979 c -0.607,-2.62 -0.76,-5.288 -0.57,-7.92 0.201,-2.635 0.757,-5.247 1.74,-7.747 0.499,-1.248 1.142,-2.457 1.992,-3.582 0.459,-0.546 0.929,-1.091 1.589,-1.52 0.631,-0.425 1.463,-0.769 2.35,-0.657 0.884,0.125 1.55,0.661 2.008,1.208 0.485,0.551 0.75,1.182 1.027,1.788 0.499,1.235 0.737,2.512 0.918,3.776 0.342,2.538 0.308,5.083 0.141,7.609 m -29.854,-8.723 c -0.383,-0.836 -0.667,-1.691 -0.879,-2.555 -0.566,-2.332 -0.687,-4.711 -0.525,-7.054 0.188,-2.345 0.666,-4.677 1.569,-6.9 0.458,-1.108 1.036,-2.186 1.808,-3.19 0.417,-0.491 0.842,-0.975 1.444,-1.361 0.414,-0.276 0.93,-0.509 1.488,-0.58 0.215,-0.028 0.436,-0.036 0.661,-0.008 0.813,0.121 1.414,0.614 1.823,1.109 0.432,0.502 0.663,1.068 0.906,1.61 0.435,1.104 0.64,2.238 0.787,3.364 0.277,2.254 0.264,4.504 0.105,6.743 -0.174,2.235 -0.492,4.463 -1.098,6.652 -0.309,1.092 -0.68,2.184 -1.274,3.212 -0.319,0.502 -0.631,1.026 -1.133,1.46 -0.478,0.432 -1.148,0.831 -1.971,0.829 -0.821,-0.015 -1.531,-0.437 -2.045,-0.899 -0.539,-0.472 -0.892,-1.013 -1.228,-1.562 -0.16,-0.287 -0.304,-0.578 -0.438,-0.87 m 167.564,-62.795 c 0.909,1.539 1.606,3.225 1.964,5.013 0.344,1.779 0.417,3.689 -0.186,5.507 -0.261,0.906 -0.727,1.776 -1.317,2.526 -0.32,0.361 -0.635,0.716 -1.023,0.999 -0.359,0.31 -0.76,0.56 -1.18,0.765 -1.701,0.807 -3.582,0.78 -5.162,0.233 1.671,-0.105 3.268,-0.537 4.398,-1.483 1.139,-0.927 1.8,-2.211 2.022,-3.607 0.43,-2.819 -0.568,-5.842 -2.092,-8.419 -1.562,-2.593 -3.719,-4.884 -6.305,-6.492 -1.3,-0.786 -2.718,-1.414 -4.225,-1.645 -1.507,-0.292 -3.093,-0.099 -4.599,0.674 1.077,-1.311 2.874,-2.058 4.66,-2.145 0.903,-0.069 1.794,0.052 2.683,0.199 0.874,0.192 1.73,0.476 2.547,0.833 3.285,1.436 5.977,3.99 7.815,7.042 m 13.98,73.141 c 1.855,0.679 3.538,1.713 5.021,2.952 2.937,2.496 5.173,5.823 6.109,9.576 0.467,1.863 0.608,3.846 0.167,5.743 -0.201,0.945 -0.604,1.852 -1.109,2.654 -0.53,0.8 -1.239,1.449 -2.015,1.917 0.562,-0.724 1.006,-1.475 1.275,-2.286 0.235,-0.821 0.425,-1.634 0.398,-2.477 0.06,-1.663 -0.365,-3.311 -0.944,-4.859 -1.224,-3.089 -3.292,-5.843 -5.807,-7.97 -2.499,-2.103 -5.621,-3.655 -8.706,-3.495 -1.503,0.129 -2.993,0.724 -4.034,1.961 -1.083,1.202 -1.661,2.907 -1.928,4.698 -0.392,-1.769 -0.249,-3.761 0.716,-5.534 0.248,-0.435 0.55,-0.844 0.89,-1.226 0.339,-0.386 0.755,-0.69 1.156,-1.024 0.861,-0.582 1.846,-0.976 2.857,-1.19 2.034,-0.418 4.097,-0.085 5.954,0.56 m 24.901,22.646 c -2.588,-9.865 -12.773,-43.985 -20.211,-68.899 -3.729,-12.493 -6.675,-22.361 -7.396,-24.936 -3.366,-12.016 -12.361,-14.476 -21.059,-16.855 -1.123,-0.308 -2.265,-0.62 -3.425,-0.959 -6.741,-1.969 -49.178,-10.106 -74.534,-14.967 -9,-1.726 -16.109,-3.089 -18.011,-3.485 -3.475,-0.726 -6.475,-1.049 -9.078,-1.049 -10.799,0 -14.775,5.562 -17.626,11.034 -1.623,3.117 -11.086,20.19 -19.623,35.382 C 2.45,-6.279 1.766,-7.047 1.071,-7.826 l 24.975,-45.227 -94.271,-10.619 c -26.342,-12.876 -58.598,-27.107 -67.11,-25.279 -41.892,9 -123.747,27.088 -134.915,30.75 -13.723,4.5 5.031,10.465 19.527,15.859 16.822,6.261 46.031,16.601 66.713,24.215 -1.798,4.759 -3.75,9.942 -5.803,15.389 -6.31,16.743 -13.461,35.718 -19.819,52.351 -3.459,9.047 -1.698,23.617 13.615,37.38 12.95,11.637 35.747,31.09 45.481,39.397 2.424,2.068 4.338,3.701 4.565,3.905 6.51,5.883 17.382,9.277 33.234,10.376 17.345,1.202 63.627,3.263 72.549,3.084 14.825,-0.272 20.935,-5.656 29.836,-27.069 1.088,8.778 2.13,16.47 3.017,21.714 2.39,14.126 12.919,16.699 30.325,16.357 21.702,-0.421 73.693,-0.373 80.005,-0.162 15.767,0.531 22.428,-4.218 32.517,-11.395 l 2.021,-1.436 c 2.731,-1.93 11.916,-8.051 21.641,-14.532 14.431,-9.616 29.354,-19.561 32.462,-21.938 7.035,-5.383 6.203,-11.757 2.441,-26.091 M -6.301,46.742 c -0.65,0.815 -1.594,1.463 -2.245,1.297 -0.627,-0.152 -1.146,-0.971 -1.487,-1.876 -0.35,-0.92 -0.534,-1.952 -0.662,-2.988 -0.247,-2.084 -0.236,-4.225 -0.088,-6.353 0.168,-2.125 0.467,-4.246 1.018,-6.271 0.277,-1.008 0.616,-2.001 1.097,-2.86 0.47,-0.848 1.109,-1.581 1.756,-1.638 0.672,-0.067 1.511,0.716 2.032,1.619 0.53,0.924 0.925,1.973 1.192,3.049 0.536,2.162 0.66,4.431 0.507,6.668 -0.179,2.232 -0.638,4.459 -1.488,6.515 -0.426,1.025 -0.972,2.004 -1.632,2.838 m 128.357,94.746 c 0.048,0.042 0.083,0.079 0.081,0.099 -0.003,0.047 -0.046,-0.022 -0.081,-0.099 M 14.012,65.525 c -0.731,0.929 -1.788,1.7 -2.589,1.528 C 10.646,66.884 10.032,65.929 9.628,64.898 9.215,63.848 8.997,62.674 8.834,61.498 8.525,59.13 8.554,56.695 8.711,54.279 8.912,51.87 9.233,49.455 9.894,47.158 c 0.329,-1.14 0.722,-2.269 1.286,-3.248 0.55,-0.963 1.302,-1.817 2.101,-1.869 0.824,-0.049 1.755,0.871 2.339,1.898 0.589,1.056 1.03,2.245 1.317,3.463 0.574,2.448 0.731,5.006 0.549,7.532 -0.192,2.522 -0.728,5.028 -1.659,7.363 -0.466,1.163 -1.076,2.273 -1.815,3.228 m 29.918,17.43 c -0.577,1.34 -1.323,2.619 -2.252,3.683 -0.466,0.526 -0.994,0.99 -1.56,1.306 -0.57,0.302 -1.161,0.448 -1.699,0.37 -0.535,-0.107 -1.006,-0.42 -1.422,-0.844 -0.413,-0.438 -0.741,-1 -1.03,-1.59 -0.58,-1.189 -0.903,-2.552 -1.149,-3.917 -0.476,-2.748 -0.49,-5.599 -0.305,-8.419 0.235,-2.815 0.659,-5.636 1.54,-8.284 0.439,-1.317 0.967,-2.615 1.716,-3.707 0.37,-0.543 0.78,-1.05 1.254,-1.422 0.475,-0.36 0.989,-0.6 1.537,-0.626 0.545,0.004 1.109,0.235 1.629,0.62 0.513,0.396 0.967,0.934 1.349,1.525 0.761,1.19 1.31,2.565 1.682,3.977 0.362,1.418 0.611,2.874 0.735,4.344 0.114,1.471 0.092,2.949 0.005,4.424 -0.132,1.47 -0.329,2.936 -0.659,4.374 -0.341,1.434 -0.802,2.838 -1.371,4.186 m -73.189,42.368 c -5.311,-4.631 -10.407,-9.469 -15.427,-14.381 -2.531,-2.435 -4.98,-4.949 -7.471,-7.423 l -7.348,-7.541 -7.23,-7.653 c -2.373,-2.589 -4.782,-5.142 -7.114,-7.769 -4.7,-5.217 -9.327,-10.506 -13.74,-15.999 5.309,4.633 10.405,9.472 15.424,14.383 2.53,2.437 4.982,4.947 7.473,7.423 l 7.35,7.538 7.236,7.651 c 2.369,2.59 4.78,5.14 7.109,7.769 4.702,5.216 9.328,10.506 13.738,16.002 m -53.758,-90.014 -2.111,5.986 -1.06,2.992 c -0.346,0.994 -0.702,1.992 -1.131,3.02 -0.769,2.052 -1.838,4.009 -3.008,5.905 -1.265,1.841 -2.686,3.61 -4.419,5.092 -3.469,2.957 -7.907,4.707 -12.325,5.154 -2.209,0.261 -4.426,0.267 -6.597,0.149 l -6.339,-0.181 c -8.451,-0.283 -16.904,-0.515 -25.353,-0.856 -16.905,-0.599 -33.803,-1.391 -50.711,-2.375 16.933,-0.175 33.875,-0.16 50.813,0.047 8.47,0.063 16.937,0.235 25.408,0.356 l 6.35,0.121 c 2.054,0.097 4.083,0.078 6.076,-0.168 3.996,-0.433 7.749,-1.974 10.728,-4.524 1.495,-1.27 2.752,-2.815 3.892,-4.448 1.055,-1.699 2.044,-3.464 2.767,-5.373 0.395,-0.922 0.757,-1.914 1.111,-2.917 l 1.076,-2.985 2.164,-5.966 c 2.926,-7.939 5.8,-15.898 8.781,-23.817 5.881,-15.87 11.947,-31.673 18.194,-47.416 -5.147,16.133 -10.477,32.205 -15.993,48.208 -2.718,8.019 -5.542,15.997 -8.313,23.996 m 50.28,-38.061 c -1.181,6.054 -5.069,10.389 -8.682,9.684 -3.613,-0.705 -5.586,-6.184 -4.404,-12.237 1.18,-6.053 5.066,-10.388 8.681,-9.683 3.613,0.705 5.585,6.183 4.405,12.236 m -1.004,10.067 c -1.213,1.186 -2.708,2.123 -4.355,2.572 -1.641,0.443 -3.428,0.301 -4.867,-0.449 1.585,0.328 3.175,0.156 4.55,-0.475 1.386,-0.603 2.563,-1.586 3.545,-2.718 1.946,-2.303 3.185,-5.189 3.831,-8.163 0.645,-2.978 0.762,-6.108 0.026,-9.05 -0.381,-1.46 -0.97,-2.876 -1.882,-4.092 -0.914,-1.207 -2.178,-2.172 -3.707,-2.711 1.622,0.096 3.208,0.895 4.438,2.056 1.204,1.194 2.083,2.697 2.644,4.288 1.144,3.202 1.105,6.679 0.433,9.939 -0.746,3.246 -2.203,6.424 -4.656,8.803 m 14.817,84.204 c -1.179,6.053 -5.067,10.388 -8.68,9.683 -3.615,-0.705 -5.587,-6.183 -4.407,-12.236 1.182,-6.053 5.069,-10.389 8.682,-9.684 3.614,0.705 5.586,6.184 4.405,12.237 m 3.217,-8.679 c 1.142,3.2 1.116,6.678 0.428,9.932 -0.716,3.253 -2.217,6.423 -4.662,8.795 -1.216,1.171 -2.686,2.145 -4.341,2.58 -1.646,0.431 -3.427,0.308 -4.865,-0.437 1.586,0.322 3.17,0.13 4.544,-0.485 1.39,-0.588 2.548,-1.608 3.537,-2.731 0.967,-1.153 1.789,-2.437 2.409,-3.823 0.643,-1.374 1.124,-2.831 1.426,-4.327 0.662,-2.974 0.764,-6.105 0.033,-9.044 -0.381,-1.46 -0.973,-2.876 -1.883,-4.091 -0.914,-1.206 -2.178,-2.171 -3.705,-2.709 1.62,0.096 3.206,0.894 4.436,2.054 1.205,1.194 2.083,2.696 2.643,4.286 M -59.563,44.709 c 3.613,0.705 5.584,6.184 4.404,12.236 -1.181,6.054 -5.068,10.389 -8.682,9.684 -3.613,-0.705 -5.586,-6.184 -4.405,-12.236 1.181,-6.054 5.068,-10.389 8.683,-9.684 m 3.386,22.285 c -1.216,1.171 -2.685,2.145 -4.341,2.58 -1.646,0.43 -3.426,0.307 -4.867,-0.438 1.588,0.322 3.172,0.131 4.545,-0.485 1.392,-0.587 2.55,-1.608 3.538,-2.73 0.968,-1.151 1.787,-2.437 2.409,-3.823 0.644,-1.373 1.125,-2.83 1.425,-4.327 0.663,-2.974 0.765,-6.105 0.034,-9.044 -0.381,-1.459 -0.971,-2.875 -1.883,-4.091 -0.912,-1.204 -2.177,-2.171 -3.705,-2.709 1.621,0.094 3.207,0.893 4.436,2.053 1.204,1.194 2.083,2.697 2.644,4.288 1.141,3.199 1.116,6.677 0.425,9.932 -0.712,3.253 -2.214,6.422 -4.66,8.794 m -3.795,62.129 c -7.179,-2.567 -12.166,-6.985 -11.134,-9.867 1.029,-2.881 7.685,-3.137 14.867,-0.569 7.18,2.567 12.166,6.984 11.135,9.866 -1.031,2.882 -7.687,3.137 -14.868,0.57 m -12.817,-6.156 c 0.88,1.346 2.127,2.433 3.427,3.41 1.326,0.956 2.742,1.806 4.222,2.53 1.473,0.739 2.993,1.4 4.55,1.944 1.553,0.565 3.144,1.021 4.752,1.378 1.605,0.381 3.238,0.62 4.869,0.722 1.624,0.069 3.279,0.018 4.812,-0.464 1.53,-0.459 2.924,-1.442 3.723,-2.979 -0.361,1.696 -1.743,3.127 -3.362,3.892 -1.635,0.769 -3.429,1.047 -5.185,1.112 -3.536,0.106 -6.99,-0.654 -10.282,-1.779 -3.257,-1.218 -6.411,-2.822 -9.075,-5.145 -1.317,-1.163 -2.529,-2.516 -3.305,-4.147 -0.768,-1.617 -0.928,-3.599 -0.133,-5.139 -0.359,1.695 0.093,3.34 0.987,4.665 m -23.599,-5.802 c 7.108,2.541 12.12,6.698 11.196,9.285 -0.925,2.587 -7.437,2.624 -14.545,0.082 -7.108,-2.541 -12.119,-6.698 -11.196,-9.285 0.925,-2.587 7.437,-2.623 14.545,-0.082 m -16.116,3.633 c 0.933,1.268 2.176,2.292 3.482,3.208 1.326,0.896 2.721,1.709 4.189,2.388 1.455,0.699 2.948,1.332 4.479,1.866 1.522,0.554 3.076,1.016 4.646,1.394 1.565,0.407 3.161,0.66 4.753,0.809 1.591,0.12 3.201,0.116 4.726,-0.273 1.521,-0.366 2.91,-1.289 3.707,-2.785 -0.353,1.657 -1.764,3.05 -3.383,3.712 -1.633,0.67 -3.389,0.896 -5.107,0.906 -3.456,0.027 -6.805,-0.788 -10.016,-1.88 -3.174,-1.193 -6.281,-2.687 -8.936,-4.899 -1.322,-1.097 -2.536,-2.385 -3.373,-3.936 -0.833,-1.539 -1.042,-3.51 -0.265,-5.016 -0.334,1.663 0.154,3.257 1.098,4.506 m 14.687,-27.634 c -7.334,-2.622 -12.387,-7.253 -11.282,-10.343 1.105,-3.089 7.948,-3.467 15.282,-0.845 7.336,2.623 12.386,7.253 11.282,10.343 -1.105,3.09 -7.946,3.468 -15.282,0.845 m 9.252,5.335 c -3.618,0.18 -7.168,-0.576 -10.541,-1.725 -3.338,-1.252 -6.564,-2.92 -9.246,-5.353 -1.331,-1.211 -2.533,-2.624 -3.308,-4.294 -0.755,-1.664 -0.909,-3.679 -0.108,-5.26 -0.366,1.733 0.082,3.421 0.97,4.8 0.886,1.393 2.13,2.539 3.444,3.562 1.336,1.006 2.771,1.898 4.279,2.652 1.498,0.77 3.047,1.452 4.641,2.011 1.587,0.575 3.216,1.034 4.865,1.384 1.642,0.375 3.318,0.592 4.988,0.662 1.666,0.042 3.354,-0.056 4.922,-0.57 1.56,-0.503 2.976,-1.523 3.795,-3.095 -0.381,1.732 -1.779,3.193 -3.418,4.002 -1.658,0.801 -3.486,1.131 -5.283,1.224 m -85.56,-17.351 c 7.336,2.623 12.579,6.716 11.711,9.144 -0.868,2.426 -7.519,2.268 -14.853,-0.355 -7.335,-2.623 -12.578,-6.716 -11.71,-9.143 0.867,-2.427 7.517,-2.268 14.852,0.354 m 36.776,9.956 c -7.335,-2.623 -12.578,-6.716 -11.71,-9.144 0.869,-2.426 7.517,-2.268 14.853,0.355 7.335,2.623 12.579,6.716 11.711,9.143 -0.867,2.427 -7.518,2.268 -14.854,-0.354 m -13.142,-5.594 c 1.004,1.24 2.307,2.23 3.658,3.122 1.371,0.872 2.815,1.655 4.309,2.332 1.485,0.693 3.004,1.328 4.558,1.868 1.545,0.564 3.121,1.041 4.71,1.443 1.585,0.426 3.197,0.733 4.81,0.928 1.611,0.167 3.245,0.228 4.806,-0.095 1.552,-0.307 3.01,-1.171 3.814,-2.695 -0.237,0.795 -0.595,1.646 -1.274,2.234 -0.622,0.653 -1.442,1.051 -2.26,1.402 -1.68,0.597 -3.457,0.752 -5.19,0.711 -3.482,-0.092 -6.847,-0.936 -10.09,-2.046 -3.209,-1.198 -6.345,-2.68 -9.095,-4.817 -1.367,-1.066 -2.643,-2.313 -3.564,-3.839 -0.41,-0.79 -0.792,-1.617 -0.858,-2.516 -0.154,-0.885 0.11,-1.77 0.43,-2.536 -0.348,1.689 0.232,3.283 1.236,4.504 m 27.094,-42.3 c -3.888,-2.099 -4.672,-8.185 -1.752,-13.589 2.92,-5.407 8.437,-8.087 12.326,-5.988 3.887,2.1 4.672,8.183 1.752,13.592 -2.921,5.405 -8.439,8.086 -12.326,5.985 m 2.615,-20.939 c -2.717,1.673 -4.86,4.188 -6.273,7.038 -1.419,2.843 -2.115,6.087 -1.712,9.232 0.403,3.115 2.143,6.17 5.225,7.699 -1.668,-0.357 -3.226,-1.328 -4.4,-2.66 -1.172,-1.34 -1.973,-3.008 -2.359,-4.758 -0.795,-3.519 -0.094,-7.22 1.455,-10.399 1.604,-3.156 4.103,-5.935 7.318,-7.516 1.588,-0.799 3.358,-1.275 5.135,-1.267 1.767,0.011 3.533,0.493 4.916,1.499 -3.204,-1.244 -6.622,-0.539 -9.305,1.132 m -56.301,19.633 c -3.888,-2.097 -4.672,-8.183 -1.752,-13.588 2.919,-5.407 8.438,-8.088 12.325,-5.988 3.887,2.099 4.672,8.184 1.753,13.59 -2.92,5.406 -8.437,8.086 -12.326,5.986 m 1.807,-20.462 c -2.51,1.809 -4.476,4.315 -5.733,7.136 -1.267,2.803 -1.865,5.942 -1.394,8.968 0.461,3 2.193,5.899 5.176,7.39 -1.613,-0.35 -3.14,-1.247 -4.303,-2.517 -1.164,-1.273 -1.978,-2.868 -2.4,-4.549 -0.872,-3.39 -0.281,-6.988 1.1,-10.116 1.429,-3.115 3.73,-5.887 6.714,-7.621 1.478,-0.874 3.135,-1.468 4.838,-1.651 1.696,-0.17 3.441,0.066 4.912,0.815 -3.244,-0.674 -6.414,0.347 -8.91,2.145 m 37.157,-8.137 c -3.888,-2.1 -4.673,-8.184 -1.753,-13.59 2.92,-5.406 8.438,-8.087 12.326,-5.987 3.887,2.099 4.672,8.183 1.753,13.589 -2.92,5.407 -8.438,8.087 -12.326,5.988 m 2.614,-20.939 c -2.715,1.672 -4.857,4.187 -6.271,7.036 -1.418,2.846 -2.117,6.088 -1.711,9.233 0.4,3.116 2.143,6.169 5.225,7.701 -1.668,-0.36 -3.227,-1.329 -4.403,-2.662 -1.171,-1.34 -1.972,-3.008 -2.357,-4.757 -0.795,-3.521 -0.095,-7.222 1.455,-10.4 1.603,-3.157 4.103,-5.935 7.317,-7.516 1.588,-0.8 3.358,-1.275 5.136,-1.268 1.765,0.012 3.533,0.494 4.916,1.5 -3.203,-1.244 -6.621,-0.54 -9.307,1.133 m 34.604,-8.498 c -3.889,-2.099 -4.674,-8.183 -1.754,-13.59 2.92,-5.406 8.438,-8.087 12.325,-5.987 3.888,2.1 4.673,8.185 1.753,13.59 -2.92,5.406 -8.438,8.087 -12.324,5.987 m 2.609,-20.936 c -2.711,1.676 -4.871,4.183 -6.26,7.048 -1.429,2.843 -2.151,6.083 -1.736,9.228 0.403,3.116 2.156,6.153 5.241,7.691 -1.669,-0.362 -3.225,-1.327 -4.408,-2.655 -1.176,-1.337 -1.978,-3.007 -2.368,-4.755 -0.807,-3.521 -0.078,-7.227 1.479,-10.394 1.579,-3.169 4.097,-5.943 7.307,-7.528 1.589,-0.799 3.358,-1.277 5.136,-1.269 1.768,0.011 3.537,0.493 4.92,1.499 -3.205,-1.245 -6.625,-0.538 -9.311,1.135 m -56.371,19.893 c -3.887,-2.098 -4.672,-8.183 -1.753,-13.59 2.92,-5.406 8.439,-8.087 12.326,-5.987 3.888,2.1 4.673,8.185 1.753,13.591 -2.92,5.406 -8.437,8.086 -12.326,5.986 m 11.92,-22.07 v -0.001 c -1.382,-1.006 -3.149,-1.488 -4.916,-1.499 -1.777,-0.008 -3.546,0.468 -5.134,1.266 -3.215,1.582 -5.714,4.36 -7.319,7.516 -1.549,3.179 -2.248,6.881 -1.453,10.4 0.384,1.75 1.185,3.417 2.356,4.757 1.175,1.333 2.734,2.302 4.401,2.661 -3.082,-1.531 -4.823,-4.584 -5.222,-7.7 -0.406,-3.145 0.291,-6.386 1.711,-9.232 1.412,-2.85 3.554,-5.364 6.271,-7.036 2.686,-1.672 6.102,-2.377 9.305,-1.132"
             style="fill:#000000;fill-opacity:1;fill-rule:nonzero;stroke:none"
             id="path5737" />
        </g>
        <g
           id="g5739"
           transform="translate(289.4521,144.5508)">
          <path
             d="M 0,0 0.049,-0.023 Z"
             style="fill:#000000;fill-opacity:1;fill-rule:nonzero;stroke:none"
             id="path5741" />
        </g>
      </g>
    </g>
  </g>
</svg>
